<svg width="236" height="219" viewBox="0 0 236 219" fill="none" xmlns="http://www.w3.org/2000/svg">
<mask id="mask0_66_23" style="mask-type:luminance" maskUnits="userSpaceOnUse" x="80" y="32" width="150" height="155">
<path d="M207.614 164.037C236.63 133.839 236.63 84.8775 207.614 54.6791C178.598 24.4807 131.554 24.4806 102.538 54.6791C73.5221 84.8775 73.5221 133.839 102.538 164.037C131.554 194.236 178.598 194.236 207.614 164.037Z" fill="white"/>
</mask>
<g mask="url(#mask0_66_23)">
<path d="M81.4972 158.006L80.1533 159.406L85.3073 164.763L86.6512 163.362L81.4972 158.006Z" fill="#FACD49"/>
<path d="M80.1498 163.375L81.4956 164.773L86.6424 159.409L85.2966 158.011L80.1498 163.375Z" fill="#FACD49"/>
<path d="M81.5151 172.177L80.1711 173.578L85.3251 178.934L86.669 177.534L81.5151 172.177Z" fill="#FACD49"/>
<path d="M80.1606 177.538L81.5063 178.937L86.6531 173.573L85.3073 172.174L80.1606 177.538Z" fill="#FACD49"/>
<path d="M81.5216 185.353L80.1777 186.753L85.3317 192.11L86.6756 190.709L81.5216 185.353Z" fill="#FACD49"/>
<path d="M80.1754 190.735L81.5212 192.134L86.668 186.77L85.3222 185.371L80.1754 190.735Z" fill="#FACD49"/>
<path d="M81.4782 116.039L80.1343 117.439L85.2882 122.796L86.6321 121.395L81.4782 116.039Z" fill="#FACD49"/>
<path d="M80.1212 121.391L81.467 122.79L86.6138 117.426L85.268 116.027L80.1212 121.391Z" fill="#FACD49"/>
<path d="M81.4784 130.203L80.1345 131.603L85.2885 136.96L86.6324 135.559L81.4784 130.203Z" fill="#FACD49"/>
<path d="M80.1352 135.573L81.481 136.972L86.6277 131.608L85.2819 130.209L80.1352 135.573Z" fill="#FACD49"/>
<path d="M81.4919 143.381L80.1479 144.782L85.3019 150.138L86.6458 148.738L81.4919 143.381Z" fill="#FACD49"/>
<path d="M80.142 148.751L81.4878 150.15L86.6345 144.786L85.2888 143.387L80.142 148.751Z" fill="#FACD49"/>
<path d="M81.4496 74.0459L80.1057 75.4465L85.2597 80.803L86.6036 79.4024L81.4496 74.0459Z" fill="#FACD49"/>
<path d="M80.0993 79.4182L81.4451 80.8169L86.5918 75.4529L85.246 74.0542L80.0993 79.4182Z" fill="#FACD49"/>
<path d="M81.4494 88.2356L80.1055 89.6362L85.2594 94.9927L86.6033 93.5921L81.4494 88.2356Z" fill="#FACD49"/>
<path d="M80.1169 93.5894L81.4626 94.988L86.6094 89.6241L85.2636 88.2254L80.1169 93.5894Z" fill="#FACD49"/>
<path d="M81.4633 101.415L80.1194 102.815L85.2733 108.172L86.6172 106.771L81.4633 101.415Z" fill="#FACD49"/>
<path d="M80.1247 106.768L81.4705 108.166L86.6172 102.802L85.2714 101.404L80.1247 106.768Z" fill="#FACD49"/>
<path d="M81.4133 32.082L80.0693 33.4827L85.2233 38.8392L86.5672 37.4385L81.4133 32.082Z" fill="#FACD49"/>
<path d="M80.0741 37.4416L81.4199 38.8403L86.5667 33.4764L85.2209 32.0777L80.0741 37.4416Z" fill="#FACD49"/>
<path d="M81.4316 46.2422L80.0876 47.6428L85.2416 52.9993L86.5855 51.5987L81.4316 46.2422Z" fill="#FACD49"/>
<path d="M80.0849 51.6052L81.4307 53.0039L86.5774 47.6399L85.2316 46.2412L80.0849 51.6052Z" fill="#FACD49"/>
<path d="M81.4347 59.4209L80.0908 60.8215L85.2448 66.178L86.5887 64.7774L81.4347 59.4209Z" fill="#FACD49"/>
<path d="M80.0927 64.7944L81.4385 66.1931L86.5852 60.8291L85.2394 59.4304L80.0927 64.7944Z" fill="#FACD49"/>
<path d="M95.8168 158.005L94.4729 159.405L99.6268 164.762L100.971 163.361L95.8168 158.005Z" fill="#FACD49"/>
<path d="M94.465 163.36L95.8108 164.759L100.958 159.395L99.6117 157.996L94.465 163.36Z" fill="#FACD49"/>
<path d="M109.361 157.99L108.017 159.391L113.171 164.747L114.515 163.346L109.361 157.99Z" fill="#FACD49"/>
<path d="M108.016 163.348L109.361 164.747L114.508 159.383L113.162 157.984L108.016 163.348Z" fill="#FACD49"/>
<path d="M122.887 157.979L121.543 159.379L126.697 164.736L128.041 163.335L122.887 157.979Z" fill="#FACD49"/>
<path d="M121.558 163.345L122.904 164.744L128.051 159.38L126.705 157.981L121.558 163.345Z" fill="#FACD49"/>
<path d="M136.431 157.981L135.087 159.382L140.241 164.739L141.585 163.338L136.431 157.981Z" fill="#FACD49"/>
<path d="M135.072 163.333L136.418 164.732L141.565 159.368L140.219 157.969L135.072 163.333Z" fill="#FACD49"/>
<path d="M149.957 157.959L148.614 159.36L153.767 164.716L155.111 163.315L149.957 157.959Z" fill="#FACD49"/>
<path d="M148.616 163.329L149.962 164.728L155.108 159.364L153.763 157.965L148.616 163.329Z" fill="#FACD49"/>
<path d="M95.8356 172.154L94.4917 173.555L99.6456 178.911L100.99 177.511L95.8356 172.154Z" fill="#FACD49"/>
<path d="M94.476 177.534L95.8218 178.933L100.969 173.569L99.6227 172.17L94.476 177.534Z" fill="#FACD49"/>
<path d="M109.361 172.154L108.017 173.554L113.171 178.911L114.515 177.51L109.361 172.154Z" fill="#FACD49"/>
<path d="M108.008 177.531L109.354 178.929L114.5 173.565L113.154 172.167L108.008 177.531Z" fill="#FACD49"/>
<path d="M122.905 172.161L121.561 173.562L126.715 178.918L128.059 177.517L122.905 172.161Z" fill="#FACD49"/>
<path d="M121.558 177.519L122.904 178.918L128.051 173.554L126.705 172.155L121.558 177.519Z" fill="#FACD49"/>
<path d="M136.439 172.142L135.095 173.542L140.249 178.899L141.593 177.498L136.439 172.142Z" fill="#FACD49"/>
<path d="M135.083 177.497L136.429 178.896L141.576 173.532L140.23 172.133L135.083 177.497Z" fill="#FACD49"/>
<path d="M149.976 172.141L148.632 173.542L153.786 178.898L155.13 177.498L149.976 172.141Z" fill="#FACD49"/>
<path d="M148.616 177.493L149.961 178.891L155.108 173.527L153.762 172.129L148.616 177.493Z" fill="#FACD49"/>
<path d="M95.8385 185.344L94.4946 186.744L99.6486 192.101L100.992 190.7L95.8385 185.344Z" fill="#FACD49"/>
<path d="M94.4938 190.713L95.8396 192.112L100.986 186.748L99.6406 185.349L94.4938 190.713Z" fill="#FACD49"/>
<path d="M109.375 185.343L108.031 186.744L113.185 192.1L114.529 190.7L109.375 185.343Z" fill="#FACD49"/>
<path d="M108.016 190.709L109.361 192.108L114.508 186.744L113.162 185.345L108.016 190.709Z" fill="#FACD49"/>
<path d="M122.909 185.339L121.565 186.74L126.719 192.096L128.063 190.696L122.909 185.339Z" fill="#FACD49"/>
<path d="M121.566 190.697L122.912 192.096L128.059 186.732L126.713 185.333L121.566 190.697Z" fill="#FACD49"/>
<path d="M136.445 185.328L135.101 186.729L140.255 192.085L141.599 190.685L136.445 185.328Z" fill="#FACD49"/>
<path d="M135.098 190.694L136.444 192.092L141.59 186.728L140.245 185.33L135.098 190.694Z" fill="#FACD49"/>
<path d="M149.979 185.32L148.635 186.72L153.789 192.077L155.133 190.676L149.979 185.32Z" fill="#FACD49"/>
<path d="M148.623 190.671L149.969 192.07L155.115 186.706L153.769 185.307L148.623 190.671Z" fill="#FACD49"/>
<path d="M95.7883 116.027L94.4443 117.427L99.5983 122.784L100.942 121.383L95.7883 116.027Z" fill="#FACD49"/>
<path d="M94.4477 121.387L95.7935 122.786L100.94 117.422L99.5944 116.023L94.4477 121.387Z" fill="#FACD49"/>
<path d="M109.332 116.007L107.989 117.408L113.142 122.764L114.486 121.364L109.332 116.007Z" fill="#FACD49"/>
<path d="M107.983 121.375L109.328 122.774L114.475 117.41L113.129 116.011L107.983 121.375Z" fill="#FACD49"/>
<path d="M122.869 116.007L121.525 117.407L126.679 122.764L128.023 121.363L122.869 116.007Z" fill="#FACD49"/>
<path d="M121.515 121.371L122.86 122.77L128.007 117.406L126.661 116.007L121.515 121.371Z" fill="#FACD49"/>
<path d="M136.395 115.985L135.051 117.385L140.205 122.742L141.549 121.341L136.395 115.985Z" fill="#FACD49"/>
<path d="M135.058 121.357L136.404 122.755L141.55 117.391L140.205 115.993L135.058 121.357Z" fill="#FACD49"/>
<path d="M149.932 115.984L148.588 117.385L153.742 122.741L155.086 121.341L149.932 115.984Z" fill="#FACD49"/>
<path d="M148.59 121.353L149.936 122.751L155.083 117.387L153.737 115.989L148.59 121.353Z" fill="#FACD49"/>
<path d="M95.8061 130.198L94.4622 131.599L99.6161 136.955L100.96 135.554L95.8061 130.198Z" fill="#FACD49"/>
<path d="M94.4577 135.551L95.8035 136.949L100.95 131.585L99.6044 130.187L94.4577 135.551Z" fill="#FACD49"/>
<path d="M109.34 130.179L107.996 131.579L113.15 136.936L114.493 135.535L109.34 130.179Z" fill="#FACD49"/>
<path d="M107.993 135.539L109.339 136.938L114.485 131.574L113.14 130.175L107.993 135.539Z" fill="#FACD49"/>
<path d="M122.876 130.167L121.532 131.568L126.686 136.925L128.03 135.524L122.876 130.167Z" fill="#FACD49"/>
<path d="M121.525 135.535L122.871 136.934L128.018 131.57L126.672 130.171L121.525 135.535Z" fill="#FACD49"/>
<path d="M136.413 130.167L135.069 131.568L140.223 136.924L141.567 135.523L136.413 130.167Z" fill="#FACD49"/>
<path d="M135.058 135.531L136.404 136.93L141.551 131.566L140.205 130.167L135.058 135.531Z" fill="#FACD49"/>
<path d="M149.939 130.156L148.595 131.556L153.749 136.913L155.093 135.512L149.939 130.156Z" fill="#FACD49"/>
<path d="M148.601 135.527L149.947 136.926L155.094 131.562L153.748 130.163L148.601 135.527Z" fill="#FACD49"/>
<path d="M95.809 143.387L94.4651 144.788L99.619 150.144L100.963 148.743L95.809 143.387Z" fill="#FACD49"/>
<path d="M94.4648 148.729L95.8105 150.127L100.957 144.763L99.6115 143.365L94.4648 148.729Z" fill="#FACD49"/>
<path d="M109.346 143.365L108.002 144.766L113.156 150.122L114.5 148.722L109.346 143.365Z" fill="#FACD49"/>
<path d="M108.008 148.725L109.354 150.124L114.501 144.76L113.155 143.361L108.008 148.725Z" fill="#FACD49"/>
<path d="M122.889 143.356L121.545 144.757L126.699 150.114L128.043 148.713L122.889 143.356Z" fill="#FACD49"/>
<path d="M121.532 148.713L122.878 150.112L128.025 144.748L126.679 143.349L121.532 148.713Z" fill="#FACD49"/>
<path d="M136.416 143.345L135.072 144.746L140.226 150.103L141.57 148.702L136.416 143.345Z" fill="#FACD49"/>
<path d="M135.065 148.709L136.411 150.108L141.558 144.744L140.212 143.345L135.065 148.709Z" fill="#FACD49"/>
<path d="M149.953 143.334L148.609 144.735L153.763 150.091L155.107 148.69L149.953 143.334Z" fill="#FACD49"/>
<path d="M148.608 148.705L149.954 150.104L155.1 144.74L153.755 143.341L148.608 148.705Z" fill="#FACD49"/>
<path d="M95.7704 74.0444L94.4265 75.4451L99.5805 80.8016L100.924 79.4009L95.7704 74.0444Z" fill="#FACD49"/>
<path d="M94.4257 79.4031L95.7715 80.8018L100.918 75.4378L99.5724 74.0391L94.4257 79.4031Z" fill="#FACD49"/>
<path d="M109.297 74.0439L107.953 75.4446L113.107 80.8011L114.45 79.4004L109.297 74.0439Z" fill="#FACD49"/>
<path d="M107.947 79.3994L109.293 80.7981L114.44 75.4341L113.094 74.0354L107.947 79.3994Z" fill="#FACD49"/>
<path d="M122.833 74.0322L121.489 75.4329L126.643 80.7894L127.987 79.3887L122.833 74.0322Z" fill="#FACD49"/>
<path d="M121.491 79.3953L122.836 80.7939L127.983 75.43L126.637 74.0313L121.491 79.3953Z" fill="#FACD49"/>
<path d="M136.366 74.0134L135.022 75.4141L140.176 80.7706L141.52 79.3699L136.366 74.0134Z" fill="#FACD49"/>
<path d="M135.015 79.384L136.361 80.7827L141.507 75.4187L140.162 74.0201L135.015 79.384Z" fill="#FACD49"/>
<path d="M149.91 74.0095L148.566 75.4102L153.72 80.7667L155.064 79.366L149.91 74.0095Z" fill="#FACD49"/>
<path d="M148.554 79.3723L149.9 80.771L155.047 75.407L153.701 74.0083L148.554 79.3723Z" fill="#FACD49"/>
<path d="M95.778 88.2158L94.4341 89.6165L99.588 94.973L100.932 93.5723L95.778 88.2158Z" fill="#FACD49"/>
<path d="M94.4257 93.5776L95.7715 94.9763L100.918 89.6123L99.5724 88.2137L94.4257 93.5776Z" fill="#FACD49"/>
<path d="M109.314 88.2043L107.97 89.605L113.124 94.9615L114.468 93.5608L109.314 88.2043Z" fill="#FACD49"/>
<path d="M107.968 93.5737L109.314 94.9724L114.461 89.6084L113.115 88.2097L107.968 93.5737Z" fill="#FACD49"/>
<path d="M122.84 88.2039L121.496 89.6045L126.65 94.961L127.994 93.5604L122.84 88.2039Z" fill="#FACD49"/>
<path d="M121.49 93.5701L122.836 94.9688L127.982 89.6048L126.637 88.2061L121.49 93.5701Z" fill="#FACD49"/>
<path d="M136.385 88.1738L135.041 89.5745L140.195 94.931L141.539 93.5303L136.385 88.1738Z" fill="#FACD49"/>
<path d="M135.026 93.5474L136.371 94.946L141.518 89.5821L140.172 88.1834L135.026 93.5474Z" fill="#FACD49"/>
<path d="M149.91 88.1624L148.566 89.563L153.72 94.9195L155.064 93.5188L149.91 88.1624Z" fill="#FACD49"/>
<path d="M148.569 93.5435L149.915 94.9421L155.061 89.5782L153.716 88.1795L148.569 93.5435Z" fill="#FACD49"/>
<path d="M95.7839 101.402L94.4399 102.802L99.5939 108.159L100.938 106.758L95.7839 101.402Z" fill="#FACD49"/>
<path d="M94.4403 106.763L95.7861 108.162L100.933 102.798L99.5871 101.399L94.4403 106.763Z" fill="#FACD49"/>
<path d="M109.317 101.383L107.973 102.783L113.127 108.14L114.471 106.739L109.317 101.383Z" fill="#FACD49"/>
<path d="M107.965 106.752L109.311 108.151L114.458 102.787L113.112 101.388L107.965 106.752Z" fill="#FACD49"/>
<path d="M122.854 101.372L121.51 102.772L126.664 108.129L128.008 106.728L122.854 101.372Z" fill="#FACD49"/>
<path d="M121.498 106.748L122.844 108.147L127.99 102.783L126.644 101.384L121.498 106.748Z" fill="#FACD49"/>
<path d="M136.381 101.36L135.037 102.761L140.191 108.117L141.534 106.717L136.381 101.36Z" fill="#FACD49"/>
<path d="M135.051 106.733L136.397 108.132L141.544 102.768L140.198 101.369L135.051 106.733Z" fill="#FACD49"/>
<path d="M149.924 101.352L148.58 102.752L153.734 108.109L155.078 106.708L149.924 101.352Z" fill="#FACD49"/>
<path d="M148.576 106.722L149.922 108.12L155.068 102.756L153.723 101.358L148.576 106.722Z" fill="#FACD49"/>
<path d="M95.7343 32.0696L94.3904 33.4702L99.5443 38.8267L100.888 37.4261L95.7343 32.0696Z" fill="#FACD49"/>
<path d="M94.39 37.4377L95.7358 38.8364L100.883 33.4724L99.5368 32.0738L94.39 37.4377Z" fill="#FACD49"/>
<path d="M109.267 32.0505L107.923 33.4512L113.077 38.8077L114.421 37.407L109.267 32.0505Z" fill="#FACD49"/>
<path d="M107.925 37.4263L109.271 38.825L114.418 33.461L113.072 32.0623L107.925 37.4263Z" fill="#FACD49"/>
<path d="M122.812 32.0469L121.468 33.4475L126.622 38.804L127.966 37.4034L122.812 32.0469Z" fill="#FACD49"/>
<path d="M121.465 37.4145L122.811 38.8132L127.958 33.4493L126.612 32.0506L121.465 37.4145Z" fill="#FACD49"/>
<path d="M136.348 32.0464L135.004 33.447L140.158 38.8035L141.502 37.4029L136.348 32.0464Z" fill="#FACD49"/>
<path d="M135.008 37.3999L136.354 38.7986L141.5 33.4346L140.154 32.0359L135.008 37.3999Z" fill="#FACD49"/>
<path d="M149.874 32.0349L148.53 33.4355L153.684 38.792L155.028 37.3914L149.874 32.0349Z" fill="#FACD49"/>
<path d="M148.54 37.396L149.886 38.7947L155.033 33.4307L153.687 32.032L148.54 37.396Z" fill="#FACD49"/>
<path d="M95.7416 46.2302L94.3977 47.6309L99.5516 52.9874L100.896 51.5867L95.7416 46.2302Z" fill="#FACD49"/>
<path d="M94.4005 51.6013L95.7463 53L100.893 47.636L99.5473 46.2373L94.4005 51.6013Z" fill="#FACD49"/>
<path d="M109.278 46.2295L107.934 47.6301L113.088 52.9866L114.432 51.586L109.278 46.2295Z" fill="#FACD49"/>
<path d="M107.944 51.5974L109.29 52.9961L114.436 47.6321L113.091 46.2334L107.944 51.5974Z" fill="#FACD49"/>
<path d="M122.822 46.2107L121.478 47.6113L126.632 52.9678L127.976 51.5672L122.822 46.2107Z" fill="#FACD49"/>
<path d="M121.468 51.5862L122.814 52.9849L127.96 47.6209L126.615 46.2222L121.468 51.5862Z" fill="#FACD49"/>
<path d="M136.356 46.2068L135.012 47.6074L140.166 52.9639L141.51 51.5633L136.356 46.2068Z" fill="#FACD49"/>
<path d="M135.008 51.5742L136.354 52.9729L141.5 47.6089L140.154 46.2102L135.008 51.5742Z" fill="#FACD49"/>
<path d="M149.892 46.2063L148.548 47.6069L153.702 52.9634L155.046 51.5628L149.892 46.2063Z" fill="#FACD49"/>
<path d="M148.551 51.5706L149.897 52.9692L155.043 47.6053L153.698 46.2066L148.551 51.5706Z" fill="#FACD49"/>
<path d="M95.7555 59.4197L94.4116 60.8203L99.5656 66.1768L100.909 64.7762L95.7555 59.4197Z" fill="#FACD49"/>
<path d="M94.4079 64.7795L95.7537 66.1782L100.9 60.8142L99.5546 59.4156L94.4079 64.7795Z" fill="#FACD49"/>
<path d="M109.292 59.408L107.948 60.8086L113.102 66.1651L114.446 64.7645L109.292 59.408Z" fill="#FACD49"/>
<path d="M107.951 64.7756L109.296 66.1743L114.443 60.8103L113.097 59.4116L107.951 64.7756Z" fill="#FACD49"/>
<path d="M122.818 59.3965L121.474 60.7971L126.628 66.1536L127.972 64.753L122.818 59.3965Z" fill="#FACD49"/>
<path d="M121.483 64.7715L122.829 66.1702L127.975 60.8062L126.63 59.4075L121.483 64.7715Z" fill="#FACD49"/>
<path d="M136.362 59.3882L135.018 60.7888L140.172 66.1453L141.516 64.7447L136.362 59.3882Z" fill="#FACD49"/>
<path d="M135.008 64.7598L136.354 66.1584L141.5 60.7945L140.154 59.3958L135.008 64.7598Z" fill="#FACD49"/>
<path d="M149.895 59.3848L148.551 60.7854L153.705 66.1419L155.049 64.7413L149.895 59.3848Z" fill="#FACD49"/>
<path d="M148.558 64.7378L149.904 66.1365L155.051 60.7725L153.705 59.3738L148.558 64.7378Z" fill="#FACD49"/>
<path d="M162.151 157.954L160.807 159.354L165.961 164.711L167.305 163.31L162.151 157.954Z" fill="#FACD49"/>
<path d="M160.805 163.319L162.151 164.718L167.297 159.354L165.952 157.955L160.805 163.319Z" fill="#FACD49"/>
<path d="M175.688 157.942L174.344 159.343L179.498 164.699L180.842 163.299L175.688 157.942Z" fill="#FACD49"/>
<path d="M174.348 163.315L175.694 164.714L180.841 159.35L179.495 157.951L174.348 163.315Z" fill="#FACD49"/>
<path d="M189.239 157.942L187.895 159.342L193.049 164.699L194.393 163.298L189.239 157.942Z" fill="#FACD49"/>
<path d="M187.88 163.296L189.226 164.695L194.373 159.331L193.027 157.932L187.88 163.296Z" fill="#FACD49"/>
<path d="M202.765 157.93L201.421 159.331L206.575 164.688L207.919 163.287L202.765 157.93Z" fill="#FACD49"/>
<path d="M201.412 163.292L202.758 164.691L207.905 159.327L206.559 157.928L201.412 163.292Z" fill="#FACD49"/>
<path d="M216.302 157.908L214.958 159.309L220.112 164.665L221.456 163.264L216.302 157.908Z" fill="#FACD49"/>
<path d="M214.966 163.288L216.312 164.687L221.459 159.323L220.113 157.924L214.966 163.288Z" fill="#FACD49"/>
<path d="M162.169 172.125L160.825 173.526L165.979 178.882L167.323 177.481L162.169 172.125Z" fill="#FACD49"/>
<path d="M160.816 177.493L162.161 178.892L167.308 173.528L165.962 172.129L160.816 177.493Z" fill="#FACD49"/>
<path d="M175.695 172.114L174.351 173.514L179.505 178.871L180.849 177.47L175.695 172.114Z" fill="#FACD49"/>
<path d="M174.348 177.49L175.693 178.888L180.84 173.524L179.494 172.126L174.348 177.49Z" fill="#FACD49"/>
<path d="M189.239 172.094L187.895 173.495L193.049 178.852L194.393 177.451L189.239 172.094Z" fill="#FACD49"/>
<path d="M187.883 177.467L189.229 178.866L194.376 173.502L193.03 172.103L187.883 177.467Z" fill="#FACD49"/>
<path d="M202.783 172.091L201.439 173.491L206.593 178.848L207.937 177.447L202.783 172.091Z" fill="#FACD49"/>
<path d="M201.433 177.456L202.779 178.854L207.926 173.49L206.58 172.092L201.433 177.456Z" fill="#FACD49"/>
<path d="M216.309 172.09L214.965 173.491L220.119 178.847L221.463 177.447L216.309 172.09Z" fill="#FACD49"/>
<path d="M214.965 177.452L216.311 178.851L221.458 173.487L220.112 172.088L214.965 177.452Z" fill="#FACD49"/>
<path d="M162.172 185.314L160.828 186.715L165.982 192.072L167.326 190.671L162.172 185.314Z" fill="#FACD49"/>
<path d="M160.823 190.672L162.168 192.071L167.315 186.707L165.969 185.308L160.823 190.672Z" fill="#FACD49"/>
<path d="M175.709 185.292L174.365 186.693L179.519 192.049L180.863 190.649L175.709 185.292Z" fill="#FACD49"/>
<path d="M174.355 190.668L175.701 192.067L180.848 186.703L179.502 185.304L174.355 190.668Z" fill="#FACD49"/>
<path d="M189.245 185.27L187.901 186.67L193.055 192.027L194.399 190.626L189.245 185.27Z" fill="#FACD49"/>
<path d="M187.909 190.653L189.255 192.052L194.401 186.688L193.056 185.289L187.909 190.653Z" fill="#FACD49"/>
<path d="M202.778 185.262L201.435 186.662L206.589 192.019L207.932 190.618L202.778 185.262Z" fill="#FACD49"/>
<path d="M201.433 190.642L202.779 192.04L207.926 186.676L206.58 185.278L201.433 190.642Z" fill="#FACD49"/>
<path d="M216.323 185.269L214.979 186.669L220.133 192.026L221.477 190.625L216.323 185.269Z" fill="#FACD49"/>
<path d="M214.963 190.63L216.308 192.029L221.455 186.665L220.109 185.266L214.963 190.63Z" fill="#FACD49"/>
<path d="M162.133 115.96L160.789 117.361L165.943 122.718L167.287 121.317L162.133 115.96Z" fill="#FACD49"/>
<path d="M160.783 121.346L162.129 122.745L167.275 117.381L165.93 115.982L160.783 121.346Z" fill="#FACD49"/>
<path d="M175.666 115.968L174.322 117.368L179.476 122.725L180.82 121.324L175.666 115.968Z" fill="#FACD49"/>
<path d="M174.323 121.324L175.669 122.722L180.816 117.358L179.47 115.96L174.323 121.324Z" fill="#FACD49"/>
<path d="M189.203 115.956L187.859 117.357L193.013 122.713L194.357 121.313L189.203 115.956Z" fill="#FACD49"/>
<path d="M187.845 121.331L189.19 122.729L194.337 117.366L192.991 115.967L187.845 121.331Z" fill="#FACD49"/>
<path d="M202.729 115.945L201.385 117.345L206.539 122.702L207.883 121.301L202.729 115.945Z" fill="#FACD49"/>
<path d="M201.387 121.316L202.733 122.715L207.879 117.351L206.534 115.952L201.387 121.316Z" fill="#FACD49"/>
<path d="M216.273 115.937L214.929 117.337L220.083 122.694L221.427 121.293L216.273 115.937Z" fill="#FACD49"/>
<path d="M214.923 121.304L216.269 122.703L221.415 117.339L220.07 115.94L214.923 121.304Z" fill="#FACD49"/>
<path d="M162.133 130.14L160.789 131.54L165.943 136.897L167.287 135.496L162.133 130.14Z" fill="#FACD49"/>
<path d="M160.791 135.518L162.136 136.916L167.283 131.552L165.937 130.154L160.791 135.518Z" fill="#FACD49"/>
<path d="M175.676 130.131L174.333 131.532L179.486 136.888L180.83 135.488L175.676 130.131Z" fill="#FACD49"/>
<path d="M174.326 135.506L175.671 136.905L180.818 131.541L179.472 130.142L174.326 135.506Z" fill="#FACD49"/>
<path d="M189.21 130.128L187.866 131.528L193.02 136.885L194.364 135.484L189.21 130.128Z" fill="#FACD49"/>
<path d="M187.865 135.494L189.211 136.893L194.358 131.529L193.012 130.13L187.865 135.494Z" fill="#FACD49"/>
<path d="M202.746 130.116L201.403 131.517L206.557 136.873L207.9 135.473L202.746 130.116Z" fill="#FACD49"/>
<path d="M201.398 135.49L202.743 136.889L207.89 131.525L206.544 130.126L201.398 135.49Z" fill="#FACD49"/>
<path d="M216.281 130.097L214.937 131.498L220.091 136.854L221.435 135.454L216.281 130.097Z" fill="#FACD49"/>
<path d="M214.934 135.468L216.279 136.867L221.426 131.503L220.08 130.104L214.934 135.468Z" fill="#FACD49"/>
<path d="M162.146 143.329L160.802 144.73L165.956 150.086L167.3 148.686L162.146 143.329Z" fill="#FACD49"/>
<path d="M160.787 148.696L162.133 150.094L167.28 144.73L165.934 143.332L160.787 148.696Z" fill="#FACD49"/>
<path d="M175.68 143.31L174.336 144.71L179.49 150.067L180.834 148.666L175.68 143.31Z" fill="#FACD49"/>
<path d="M174.322 148.684L175.668 150.083L180.815 144.719L179.469 143.32L174.322 148.684Z" fill="#FACD49"/>
<path d="M189.224 143.306L187.88 144.707L193.034 150.064L194.378 148.663L189.224 143.306Z" fill="#FACD49"/>
<path d="M187.873 148.673L189.219 150.072L194.366 144.708L193.02 143.309L187.873 148.673Z" fill="#FACD49"/>
<path d="M202.75 143.295L201.406 144.696L206.56 150.052L207.904 148.651L202.75 143.295Z" fill="#FACD49"/>
<path d="M201.405 148.669L202.751 150.068L207.898 144.704L206.552 143.305L201.405 148.669Z" fill="#FACD49"/>
<path d="M216.287 143.283L214.943 144.684L220.097 150.041L221.441 148.64L216.287 143.283Z" fill="#FACD49"/>
<path d="M214.948 148.654L216.294 150.053L221.441 144.689L220.095 143.29L214.948 148.654Z" fill="#FACD49"/>
<path d="M162.104 74.0044L160.76 75.405L165.914 80.7615L167.258 79.3609L162.104 74.0044Z" fill="#FACD49"/>
<path d="M160.755 79.3623L162.101 80.761L167.248 75.397L165.902 73.9983L160.755 79.3623Z" fill="#FACD49"/>
<path d="M175.63 73.9822L174.286 75.3828L179.44 80.7393L180.784 79.3387L175.63 73.9822Z" fill="#FACD49"/>
<path d="M174.288 79.3586L175.633 80.7573L180.78 75.3933L179.434 73.9947L174.288 79.3586Z" fill="#FACD49"/>
<path d="M189.174 73.9741L187.831 75.3748L192.985 80.7313L194.328 79.3306L189.174 73.9741Z" fill="#FACD49"/>
<path d="M187.833 79.3472L189.179 80.7458L194.326 75.3819L192.98 73.9832L187.833 79.3472Z" fill="#FACD49"/>
<path d="M202.711 73.9624L201.367 75.363L206.521 80.7195L207.865 79.3189L202.711 73.9624Z" fill="#FACD49"/>
<path d="M201.365 79.3428L202.711 80.7415L207.858 75.3775L206.512 73.9788L201.365 79.3428Z" fill="#FACD49"/>
<path d="M216.247 73.9621L214.903 75.3628L220.057 80.7193L221.401 79.3186L216.247 73.9621Z" fill="#FACD49"/>
<path d="M214.887 79.3393L216.233 80.738L221.38 75.3741L220.034 73.9754L214.887 79.3393Z" fill="#FACD49"/>
<path d="M162.112 88.165L160.768 89.5657L165.922 94.9222L167.266 93.5215L162.112 88.165Z" fill="#FACD49"/>
<path d="M160.766 93.5371L162.111 94.9358L167.258 89.5718L165.912 88.1731L160.766 93.5371Z" fill="#FACD49"/>
<path d="M175.648 88.1536L174.304 89.5542L179.458 94.9107L180.802 93.5101L175.648 88.1536Z" fill="#FACD49"/>
<path d="M174.308 93.522L175.654 94.9207L180.801 89.5567L179.455 88.158L174.308 93.522Z" fill="#FACD49"/>
<path d="M189.185 88.1531L187.841 89.5537L192.995 94.9102L194.339 93.5096L189.185 88.1531Z" fill="#FACD49"/>
<path d="M187.83 93.5183L189.176 94.917L194.323 89.553L192.977 88.1543L187.83 93.5183Z" fill="#FACD49"/>
<path d="M202.718 88.1338L201.375 89.5344L206.528 94.8909L207.872 93.4903L202.718 88.1338Z" fill="#FACD49"/>
<path d="M201.365 93.5066L202.711 94.9053L207.858 89.5413L206.512 88.1426L201.365 93.5066Z" fill="#FACD49"/>
<path d="M216.255 88.1225L214.911 89.5232L220.065 94.8797L221.409 93.479L216.255 88.1225Z" fill="#FACD49"/>
<path d="M214.908 93.5027L216.254 94.9014L221.401 89.5374L220.055 88.1387L214.908 93.5027Z" fill="#FACD49"/>
<path d="M162.125 101.344L160.781 102.744L165.935 108.101L167.279 106.7L162.125 101.344Z" fill="#FACD49"/>
<path d="M160.784 106.704L162.129 108.103L167.276 102.739L165.93 101.34L160.784 106.704Z" fill="#FACD49"/>
<path d="M175.662 101.343L174.318 102.744L179.472 108.1L180.816 106.7L175.662 101.343Z" fill="#FACD49"/>
<path d="M174.316 106.7L175.662 108.099L180.808 102.735L179.463 101.336L174.316 106.7Z" fill="#FACD49"/>
<path d="M189.188 101.343L187.844 102.743L192.998 108.1L194.342 106.699L189.188 101.343Z" fill="#FACD49"/>
<path d="M187.837 106.708L189.183 108.106L194.33 102.742L192.984 101.344L187.837 106.708Z" fill="#FACD49"/>
<path d="M202.732 101.313L201.388 102.713L206.542 108.07L207.886 106.669L202.732 101.313Z" fill="#FACD49"/>
<path d="M201.373 106.685L202.719 108.084L207.866 102.72L206.52 101.321L201.373 106.685Z" fill="#FACD49"/>
<path d="M216.258 101.312L214.914 102.713L220.068 108.069L221.412 106.669L216.258 101.312Z" fill="#FACD49"/>
<path d="M214.916 106.681L216.262 108.08L221.409 102.716L220.063 101.317L214.916 106.681Z" fill="#FACD49"/>
<path d="M162.079 32.03L160.735 33.4307L165.889 38.7872L167.233 37.3865L162.079 32.03Z" fill="#FACD49"/>
<path d="M160.73 37.3972L162.076 38.7959L167.222 33.4319L165.877 32.0332L160.73 37.3972Z" fill="#FACD49"/>
<path d="M175.612 32.011L174.268 33.4116L179.422 38.7681L180.766 37.3675L175.612 32.011Z" fill="#FACD49"/>
<path d="M174.265 37.375L175.611 38.7737L180.758 33.4097L179.412 32.011L174.265 37.375Z" fill="#FACD49"/>
<path d="M189.138 31.9995L187.794 33.4001L192.948 38.7566L194.292 37.356L189.138 31.9995Z" fill="#FACD49"/>
<path d="M187.798 37.3709L189.143 38.7695L194.29 33.4055L192.944 32.0069L187.798 37.3709Z" fill="#FACD49"/>
<path d="M202.675 31.988L201.331 33.3887L206.485 38.7452L207.829 37.3445L202.675 31.988Z" fill="#FACD49"/>
<path d="M201.341 37.3669L202.687 38.7656L207.833 33.4016L206.487 32.003L201.341 37.3669Z" fill="#FACD49"/>
<path d="M216.226 31.9875L214.882 33.3882L220.036 38.7447L221.38 37.344L216.226 31.9875Z" fill="#FACD49"/>
<path d="M214.884 37.3369L216.229 38.7356L221.376 33.3716L220.03 31.9729L214.884 37.3369Z" fill="#FACD49"/>
<path d="M162.086 46.1904L160.742 47.5911L165.896 52.9476L167.24 51.5469L162.086 46.1904Z" fill="#FACD49"/>
<path d="M160.741 51.5608L162.086 52.9595L167.233 47.5955L165.887 46.1968L160.741 51.5608Z" fill="#FACD49"/>
<path d="M175.63 46.1824L174.286 47.583L179.44 52.9395L180.784 51.5389L175.63 46.1824Z" fill="#FACD49"/>
<path d="M174.265 51.5493L175.611 52.948L180.758 47.584L179.412 46.1853L174.265 51.5493Z" fill="#FACD49"/>
<path d="M189.146 46.1599L187.802 47.5605L192.956 52.917L194.3 51.5164L189.146 46.1599Z" fill="#FACD49"/>
<path d="M187.809 51.5454L189.155 52.9441L194.302 47.5801L192.956 46.1814L187.809 51.5454Z" fill="#FACD49"/>
<path d="M202.683 46.1594L201.339 47.5601L206.493 52.9166L207.836 51.5159L202.683 46.1594Z" fill="#FACD49"/>
<path d="M201.352 51.5305L202.698 52.9292L207.844 47.5652L206.498 46.1665L201.352 51.5305Z" fill="#FACD49"/>
<path d="M216.218 46.1589L214.875 47.5596L220.028 52.9161L221.372 51.5154L216.218 46.1589Z" fill="#FACD49"/>
<path d="M214.873 51.5378L216.219 52.9365L221.365 47.5725L220.019 46.1739L214.873 51.5378Z" fill="#FACD49"/>
<path d="M162.09 59.3689L160.746 60.7695L165.9 66.126L167.243 64.7254L162.09 59.3689Z" fill="#FACD49"/>
<path d="M160.748 64.739L162.094 66.1377L167.241 60.7737L165.895 59.375L160.748 64.739Z" fill="#FACD49"/>
<path d="M175.626 59.3684L174.282 60.769L179.436 66.1255L180.78 64.7249L175.626 59.3684Z" fill="#FACD49"/>
<path d="M174.28 64.7351L175.626 66.1338L180.773 60.7698L179.427 59.3711L174.28 64.7351Z" fill="#FACD49"/>
<path d="M189.16 59.3381L187.816 60.7388L192.97 66.0953L194.314 64.6946L189.16 59.3381Z" fill="#FACD49"/>
<path d="M187.827 64.7124L189.172 66.1111L194.319 60.7471L192.973 59.3484L187.827 64.7124Z" fill="#FACD49"/>
<path d="M202.696 59.3381L201.352 60.7388L206.506 66.0953L207.85 64.6946L202.696 59.3381Z" fill="#FACD49"/>
<path d="M201.348 64.709L202.694 66.1077L207.84 60.7437L206.495 59.345L201.348 64.709Z" fill="#FACD49"/>
<path d="M216.233 59.3374L214.889 60.738L220.043 66.0945L221.387 64.6939L216.233 59.3374Z" fill="#FACD49"/>
<path d="M214.88 64.7161L216.226 66.1147L221.373 60.7508L220.027 59.3521L214.88 64.7161Z" fill="#FACD49"/>
<path d="M230.629 157.91L229.285 159.311L234.439 164.668L235.783 163.267L230.629 157.91Z" fill="#FACD49"/>
<path d="M229.274 163.266L230.62 164.665L235.766 159.301L234.421 157.902L229.274 163.266Z" fill="#FACD49"/>
<path d="M230.63 172.078L229.286 173.479L234.44 178.835L235.784 177.435L230.63 172.078Z" fill="#FACD49"/>
<path d="M229.282 177.448L230.627 178.847L235.774 173.483L234.428 172.084L229.282 177.448Z" fill="#FACD49"/>
<path d="M230.633 185.257L229.289 186.658L234.443 192.014L235.787 190.614L230.633 185.257Z" fill="#FACD49"/>
<path d="M229.289 190.627L230.635 192.025L235.782 186.661L234.436 185.263L229.289 190.627Z" fill="#FACD49"/>
<path d="M230.593 115.925L229.249 117.325L234.403 122.682L235.747 121.281L230.593 115.925Z" fill="#FACD49"/>
<path d="M229.238 121.301L230.584 122.699L235.73 117.335L234.385 115.937L229.238 121.301Z" fill="#FACD49"/>
<path d="M230.601 130.096L229.257 131.496L234.411 136.853L235.754 135.452L230.601 130.096Z" fill="#FACD49"/>
<path d="M229.259 135.464L230.605 136.863L235.752 131.499L234.406 130.1L229.259 135.464Z" fill="#FACD49"/>
<path d="M230.614 143.274L229.271 144.675L234.424 150.032L235.768 148.631L230.614 143.274Z" fill="#FACD49"/>
<path d="M229.267 148.643L230.612 150.041L235.759 144.677L234.413 143.279L229.267 148.643Z" fill="#FACD49"/>
<path d="M230.557 73.9499L229.213 75.3506L234.367 80.7071L235.711 79.3064L230.557 73.9499Z" fill="#FACD49"/>
<path d="M229.214 79.3245L230.559 80.7231L235.706 75.3592L234.36 73.9605L229.214 79.3245Z" fill="#FACD49"/>
<path d="M230.564 88.1213L229.22 89.522L234.374 94.8785L235.718 93.4778L230.564 88.1213Z" fill="#FACD49"/>
<path d="M229.213 93.499L230.559 94.8977L235.706 89.5337L234.36 88.135L229.213 93.499Z" fill="#FACD49"/>
<path d="M230.579 101.3L229.235 102.7L234.389 108.057L235.733 106.656L230.579 101.3Z" fill="#FACD49"/>
<path d="M229.221 106.677L230.567 108.076L235.713 102.712L234.368 101.313L229.221 106.677Z" fill="#FACD49"/>
<path d="M230.536 31.9753L229.192 33.376L234.346 38.7325L235.69 37.3318L230.536 31.9753Z" fill="#FACD49"/>
<path d="M229.188 37.344L230.534 38.7427L235.681 33.3787L234.335 31.98L229.188 37.344Z" fill="#FACD49"/>
<path d="M230.554 46.1467L229.21 47.5474L234.364 52.9039L235.708 51.5032L230.554 46.1467Z" fill="#FACD49"/>
<path d="M229.199 51.5076L230.545 52.9062L235.691 47.5423L234.346 46.1436L229.199 51.5076Z" fill="#FACD49"/>
<path d="M230.557 59.3252L229.213 60.7258L234.367 66.0823L235.711 64.6817L230.557 59.3252Z" fill="#FACD49"/>
<path d="M229.206 64.6858L230.552 66.0845L235.699 60.7205L234.353 59.3218L229.206 64.6858Z" fill="#FACD49"/>
</g>
<path d="M60.7986 29H58.0815V36.0694H60.7986V29Z" fill="#FF5722"/>
<path d="M60.7986 29H58.0815V36.0694H60.7986V29Z" fill="#FF5722"/>
<path d="M60.7986 145.655H58.0815V152.725H60.7986V145.655Z" fill="#FF5722"/>
<path d="M6.79254 89.4485H0V92.2762H6.79254V89.4485Z" fill="#FF5722"/>
<path d="M6.79254 89.4485H0V92.2762H6.79254V89.4485Z" fill="#FF5722"/>
<path d="M118.88 89.4485H112.087V92.2762H118.88V89.4485Z" fill="#FF5722"/>
<path d="M18.3785 46.1191L16.4573 48.1187L21.2603 53.1174L23.1815 51.1179L18.3785 46.1191Z" fill="#FF5722"/>
<path d="M18.3785 46.1191L16.4573 48.1187L21.2603 53.1174L23.1815 51.1179L18.3785 46.1191Z" fill="#FF5722"/>
<path d="M97.6256 128.613L95.7043 130.613L100.507 135.612L102.429 133.612L97.6256 128.613Z" fill="#FF5722"/>
<path d="M21.2544 128.603L16.4521 133.603L18.3737 135.602L23.1759 130.603L21.2544 128.603Z" fill="#FF5722"/>
<path d="M21.2544 128.603L16.4521 133.603L18.3737 135.602L23.1759 130.603L21.2544 128.603Z" fill="#FF5722"/>
<path d="M100.509 46.1163L95.707 51.116L97.6286 53.1151L102.431 48.1155L100.509 46.1163Z" fill="#FF5722"/>
<path d="M47.2195 30.3069L44.574 30.9512L46.1216 37.8346L48.7672 37.1903L47.2195 30.3069Z" fill="#FF5722"/>
<path d="M47.2195 30.3069L44.574 30.9512L46.1216 37.8346L48.7672 37.1903L47.2195 30.3069Z" fill="#FF5722"/>
<path d="M72.762 143.898L70.1165 144.542L71.6641 151.425L74.3096 150.781L72.762 143.898Z" fill="#FF5722"/>
<path d="M7.8736 101.969L1.26025 103.583L1.88022 106.336L8.49357 104.723L7.8736 101.969Z" fill="#FF5722"/>
<path d="M7.8736 101.969L1.26025 103.583L1.88022 106.336L8.49357 104.723L7.8736 101.969Z" fill="#FF5722"/>
<path d="M117.009 75.3954L110.396 77.0073L111.015 79.7606L117.629 78.1487L117.009 75.3954Z" fill="#FF5722"/>
<path d="M9.65838 57.0372L8.22583 59.4399L13.9975 63.1673L15.4301 60.7645L9.65838 57.0372Z" fill="#FF5722"/>
<path d="M9.65838 57.0372L8.22583 59.4399L13.9975 63.1673L15.4301 60.7645L9.65838 57.0372Z" fill="#FF5722"/>
<path d="M104.888 118.549L103.455 120.952L109.227 124.679L110.659 122.276L104.888 118.549Z" fill="#FF5722"/>
<path d="M30.5316 136.665L26.9492 142.672L29.2576 144.163L32.84 138.157L30.5316 136.665Z" fill="#FF5722"/>
<path d="M30.5316 136.665L26.9492 142.672L29.2576 144.163L32.84 138.157L30.5316 136.665Z" fill="#FF5722"/>
<path d="M89.6224 37.5511L86.04 43.5574L88.3485 45.0487L91.9309 39.0425L89.6224 37.5511Z" fill="#FF5722"/>
<path d="M38.7797 32.8325L36.2544 33.8757L38.7604 40.4464L41.2857 39.4031L38.7797 32.8325Z" fill="#FF5722"/>
<path d="M38.7797 32.8325L36.2544 33.8757L38.7604 40.4464L41.2857 39.4031L38.7797 32.8325Z" fill="#FF5722"/>
<path d="M80.1223 141.268L77.5969 142.311L80.1029 148.881L82.6283 147.838L80.1223 141.268Z" fill="#FF5722"/>
<path d="M10.0026 109.753L3.68921 112.361L4.69161 114.989L11.005 112.381L10.0026 109.753Z" fill="#FF5722"/>
<path d="M10.0026 109.753L3.68921 112.361L4.69161 114.989L11.005 112.381L10.0026 109.753Z" fill="#FF5722"/>
<path d="M114.192 66.7249L107.878 69.333L108.881 71.9613L115.194 69.3531L114.192 66.7249Z" fill="#FF5722"/>
<path d="M5.41301 65.0391L4.33569 67.635L10.5715 70.4381L11.6488 67.8421L5.41301 65.0391Z" fill="#FF5722"/>
<path d="M5.41301 65.0391L4.33569 67.635L10.5715 70.4381L11.6488 67.8421L5.41301 65.0391Z" fill="#FF5722"/>
<path d="M108.324 111.296L107.247 113.892L113.483 116.695L114.56 114.099L108.324 111.296Z" fill="#FF5722"/>
<path d="M37.3316 140.615L34.6394 147.105L37.1339 148.226L39.8261 141.736L37.3316 140.615Z" fill="#FF5722"/>
<path d="M37.3316 140.615L34.6394 147.105L37.1339 148.226L39.8261 141.736L37.3316 140.615Z" fill="#FF5722"/>
<path d="M81.753 33.5091L79.0608 39.9995L81.5553 41.1203L84.2475 34.6299L81.753 33.5091Z" fill="#FF5722"/>
<path d="M26.6199 39.2699L24.3894 40.8845L28.2679 46.6881L30.4985 45.0735L26.6199 39.2699Z" fill="#FF5722"/>
<path d="M26.6199 39.2699L24.3894 40.8845L28.2679 46.6881L30.4985 45.0735L26.6199 39.2699Z" fill="#FF5722"/>
<path d="M90.6214 135.031L88.3909 136.646L92.2694 142.45L94.5 140.835L90.6214 135.031Z" fill="#FF5722"/>
<path d="M15.4472 120.984L9.87085 125.02L11.4223 127.342L16.9986 123.305L15.4472 120.984Z" fill="#FF5722"/>
<path d="M15.4472 120.984L9.87085 125.02L11.4223 127.342L16.9986 123.305L15.4472 120.984Z" fill="#FF5722"/>
<path d="M107.467 54.3884L101.891 58.425L103.442 60.7465L109.018 56.7099L107.467 54.3884Z" fill="#FF5722"/>
<path d="M1.17528 78.5329L0.695068 81.3162L7.38068 82.5656L7.86089 79.7824L1.17528 78.5329Z" fill="#FF5722"/>
<path d="M1.17528 78.5329L0.695068 81.3162L7.38068 82.5656L7.86089 79.7824L1.17528 78.5329Z" fill="#FF5722"/>
<path d="M111.507 99.157L111.027 101.94L117.712 103.19L118.193 100.406L111.507 99.157Z" fill="#FF5722"/>
<path d="M48.8053 144.541L47.606 151.5L50.2803 151.999L51.4796 145.041L48.8053 144.541Z" fill="#FF5722"/>
<path d="M48.8053 144.541L47.606 151.5L50.2803 151.999L51.4796 145.041L48.8053 144.541Z" fill="#FF5722"/>
<path d="M68.6049 29.7194L67.4055 36.6777L70.0798 37.177L71.2792 30.2187L68.6049 29.7194Z" fill="#FF5722"/>
</svg>
