<svg width="1440" height="1289" viewBox="0 0 1440 1289" fill="none" xmlns="http://www.w3.org/2000/svg">
<path d="M-696.055 147.106C-691.157 136.703 -551.199 26.7064 -327.387 3.5075C-126.617 -17.1928 174.578 88.468 396.305 333.541C633.856 596.145 894.158 771.234 1131.15 887.255C1365.14 1001.67 1570.11 1031.93 1674.12 1034.43C1899.46 1040.2 2049.37 1218.57 1862.88 1280.15C1775.66 1308.49 1671.63 1266.33 1511.69 1174.38C1344.52 1078.27 1118.39 916.901 762.62 732.193C419.418 554.147 2.22348 382.541 -273.79 324.493C-567.601 262.777 -740.117 237.038 -696.055 147.106Z" fill="url(#paint0_linear_136_93)" fill-opacity="0.2"/>
<defs>
<linearGradient id="paint0_linear_136_93" x1="1522.67" y1="1435.5" x2="1070.69" y2="-455.365" gradientUnits="userSpaceOnUse">
<stop offset="0.188914" stop-color="#5D50C6"/>
<stop offset="0.594581" stop-color="#F85E9F"/>
</linearGradient>
</defs>
</svg>
