<svg width="1440" height="1052" viewBox="0 0 1440 1052" fill="none" xmlns="http://www.w3.org/2000/svg">
<path d="M-737.055 147.087C-732.157 136.684 -592.199 26.6876 -368.387 3.48871C-167.617 -17.2116 133.578 88.4492 355.304 333.522C592.855 596.126 853.158 771.215 1090.15 887.237C1324.14 1001.65 1529.11 1031.91 1633.12 1034.41C1858.46 1040.18 2008.37 1218.55 1821.88 1280.13C1734.66 1308.47 1630.63 1266.31 1470.69 1174.36C1303.52 1078.25 1077.39 916.883 721.62 732.174C378.417 554.128 -38.7768 382.523 -314.79 324.474C-608.601 262.758 -781.117 237.019 -737.055 147.087Z" fill="url(#paint0_linear_92_930)" fill-opacity="0.2"/>
<defs>
<linearGradient id="paint0_linear_92_930" x1="1481.67" y1="1435.48" x2="1029.69" y2="-455.384" gradientUnits="userSpaceOnUse">
<stop offset="0.188914" stop-color="#5D50C6"/>
<stop offset="0.594581" stop-color="#F85E9F"/>
</linearGradient>
</defs>
</svg>
